<svg xmlns="http://www.w3.org/2000/svg" viewBox="0 0 200 200" width="100%" height="100%">
  <defs>
    <linearGradient id="cloudGrad" x1="0%" y1="0%" x2="100%" y2="100%">
      <stop offset="0%" stop-color="#A594F9" />
      <stop offset="40%" stop-color="#6246EA" />
      <stop offset="100%" stop-color="#0018CC" />
    </linearGradient>
    
    <filter id="glow" x="-20%" y="-20%" width="140%" height="140%">
      <feGaussianBlur stdDeviation="2" result="blur" />
      <feComposite in="SourceGraphic" in2="blur" operator="over" />
    </filter>
  </defs>

  <path d="M 65 50 
           A 32 32 0 0 1 125 45 
           A 35 35 0 0 1 165 95 
           A 32 32 0 0 1 135 150 
           A 35 35 0 0 1 65 155 
           A 32 32 0 0 1 35 105 
           A 32 32 0 0 1 65 50 Z" 
        fill="url(#cloudGrad)" />

  <path d="M 65 75 L 85 95 L 65 115" 
        fill="none" 
        stroke="#FFFFFF" 
        stroke-width="10" 
        stroke-linecap="round" 
        stroke-linejoin="round" />

  <g fill="#FFFFFF">
    <rect x="102" y="88" width="8" height="14" rx="4" />
    <rect x="115" y="80" width="8" height="30" rx="4" />
    <rect x="128" y="73" width="8" height="44" rx="4" />
    <rect x="141" y="91" width="8" height="8" rx="4" />
  </g>

  <g fill="none" stroke="#A594F9" stroke-width="5" stroke-linecap="round" opacity="0.85" filter="url(#glow)">
    <path d="M 172 75 A 35 35 0 0 1 172 115" />
    <path d="M 183 65 A 50 50 0 0 1 183 125" stroke-width="4" opacity="0.5" />
  </g>
</svg>
